<svg width="100" height="100" viewBox="0 0 100 100" fill="none" xmlns="http://www.w3.org/2000/svg">
<path d="M37.7842 41.15C37.9508 37.8167 39.1175 35.25 41.2842 33.45C43.4842 31.6167 46.3675 30.7 49.9342 30.7C52.3675 30.7 54.4508 31.1333 56.1842 32C57.9175 32.8333 59.2175 33.9833 60.0842 35.45C60.9842 36.8833 61.4342 38.5167 61.4342 40.35C61.4342 42.45 60.8842 44.2333 59.7842 45.7C58.7175 47.1333 57.4342 48.1 55.9342 48.6V48.8C57.8675 49.4 59.3675 50.4667 60.4342 52C61.5342 53.5333 62.0842 55.5 62.0842 57.9C62.0842 59.9 61.6175 61.6833 60.6842 63.25C59.7842 64.8167 58.4342 66.05 56.6342 66.95C54.8675 67.8167 52.7342 68.25 50.2342 68.25C46.4675 68.25 43.4008 67.3 41.0342 65.4C38.6675 63.5 37.4175 60.7 37.2842 57H44.0842C44.1508 58.6333 44.7008 59.95 45.7342 60.95C46.8008 61.9167 48.2508 62.4 50.0842 62.4C51.7842 62.4 53.0842 61.9333 53.9842 61C54.9175 60.0333 55.3842 58.8 55.3842 57.3C55.3842 55.3 54.7508 53.8667 53.4842 53C52.2175 52.1333 50.2508 51.7 47.5842 51.7H46.1342V45.95H47.5842C52.3175 45.95 54.6842 44.3667 54.6842 41.2C54.6842 39.7667 54.2508 38.65 53.3842 37.85C52.5508 37.05 51.3342 36.65 49.7342 36.65C48.1675 36.65 46.9508 37.0833 46.0842 37.95C45.2508 38.7833 44.7675 39.85 44.6342 41.15H37.7842Z" fill="url(#paint0_linear_427_695)" fill-opacity="0.86"/>
<rect x="11" y="11" width="78" height="78" rx="39" stroke="url(#paint1_linear_427_695)" stroke-opacity="0.86" stroke-width="2"/>
<rect x="1.5" y="1.5" width="97" height="97" rx="48.5" stroke="url(#paint2_linear_427_695)" stroke-opacity="0.86" stroke-width="3" stroke-dasharray="15 15"/>
<defs>
<linearGradient id="paint0_linear_427_695" x1="15" y1="47.3042" x2="85.0164" y2="47.834" gradientUnits="userSpaceOnUse">
<stop stop-color="#FF4D00" stop-opacity="0.95"/>
<stop offset="1" stop-color="#FFC23A"/>
</linearGradient>
<linearGradient id="paint1_linear_427_695" x1="10" y1="46.9191" x2="90.0187" y2="47.5246" gradientUnits="userSpaceOnUse">
<stop stop-color="#FF4D00" stop-opacity="0.95"/>
<stop offset="1" stop-color="#FFC23A"/>
</linearGradient>
<linearGradient id="paint2_linear_427_695" x1="-9.65848e-07" y1="46.1488" x2="100.023" y2="46.9058" gradientUnits="userSpaceOnUse">
<stop stop-color="#FF4D00" stop-opacity="0.95"/>
<stop offset="1" stop-color="#FFC23A"/>
</linearGradient>
</defs>
</svg>
