<svg width="100" height="100" viewBox="0 0 100 100" fill="none" xmlns="http://www.w3.org/2000/svg">
<path d="M40.4945 60.1C43.6945 57.4333 46.2445 55.2167 48.1445 53.45C50.0445 51.65 51.6279 49.7833 52.8945 47.85C54.1612 45.9167 54.7945 44.0167 54.7945 42.15C54.7945 40.45 54.3945 39.1167 53.5945 38.15C52.7945 37.1833 51.5612 36.7 49.8945 36.7C48.2279 36.7 46.9445 37.2667 46.0445 38.4C45.1445 39.5 44.6779 41.0167 44.6445 42.95H37.8445C37.9779 38.95 39.1612 35.9167 41.3945 33.85C43.6612 31.7833 46.5279 30.75 49.9945 30.75C53.7945 30.75 56.7112 31.7667 58.7445 33.8C60.7779 35.8 61.7945 38.45 61.7945 41.75C61.7945 44.35 61.0945 46.8333 59.6945 49.2C58.2945 51.5667 56.6945 53.6333 54.8945 55.4C53.0945 57.1333 50.7445 59.2333 47.8445 61.7H62.5945V67.5H37.8945V62.3L40.4945 60.1Z" fill="url(#paint0_linear_427_692)"/>
<rect x="11" y="11" width="78" height="78" rx="39" stroke="url(#paint1_linear_427_692)" stroke-width="2"/>
<rect x="1.5" y="1.5" width="97" height="97" rx="48.5" stroke="url(#paint2_linear_427_692)" stroke-width="3" stroke-dasharray="15 15"/>
<defs>
<linearGradient id="paint0_linear_427_692" x1="15" y1="78.3889" x2="77.8237" y2="79.5188" gradientUnits="userSpaceOnUse">
<stop stop-color="#0B72CA"/>
<stop offset="1" stop-color="#64D056"/>
</linearGradient>
<linearGradient id="paint1_linear_427_692" x1="10" y1="82.4444" x2="81.7985" y2="83.7357" gradientUnits="userSpaceOnUse">
<stop stop-color="#0B72CA"/>
<stop offset="1" stop-color="#64D056"/>
</linearGradient>
<linearGradient id="paint2_linear_427_692" x1="2.64882e-08" y1="90.5556" x2="89.7481" y2="92.1697" gradientUnits="userSpaceOnUse">
<stop stop-color="#0B72CA"/>
<stop offset="1" stop-color="#64D056"/>
</linearGradient>
</defs>
</svg>
