<svg width="106" height="100" viewBox="0 0 106 100" fill="none" xmlns="http://www.w3.org/2000/svg">
<path d="M18.0987 0L12.8041 5.28711L20.6821 13.1614L25.9692 7.87425L18.095 0H18.0987ZM87.1959 0L79.3179 7.87425L84.6087 13.1614L92.483 5.29087L87.1959 0ZM52.6454 2.34648C51.4045 2.36152 50.1485 2.43297 48.885 2.58715C48.8474 2.58715 48.8098 2.57963 48.7722 2.58715C33.5201 4.33573 21.3816 16.6585 19.272 31.843C17.5873 44.0642 22.6263 55.1461 31.0232 62.2833C34.458 65.2147 36.7812 69.2373 37.6039 73.6773V96.2396H46.1776C47.4862 98.4846 49.874 100 52.6454 100C55.4168 100 57.8047 98.4846 59.1133 96.2396H67.687V81.1981H68.0405V76.7307C68.0405 71.218 70.9059 65.6601 75.5612 61.3394C81.7884 55.1047 86.4889 46.249 86.4889 36.0772C86.4889 17.5008 71.1992 2.1735 52.6454 2.34648ZM52.6454 9.86726C67.1793 9.6642 78.9681 21.5621 78.9681 36.0772C78.9681 43.9514 75.3206 50.8856 70.2704 55.932L70.3907 56.0523C65.372 60.6803 62.1268 66.9154 61.2154 73.681H44.7674C43.9401 67.2357 41.1762 60.9973 35.9531 56.5224C29.3085 50.8818 25.3488 42.3833 26.6724 32.7868C28.3157 20.9416 37.9273 11.4165 49.7048 10.1117C50.6772 9.97611 51.6564 9.89577 52.6379 9.87102L52.6454 9.86726ZM0 36.0772V43.5979H11.2812V36.0772H0ZM94.0097 36.0772V43.5979H105.291V36.0772H94.0097ZM20.6821 66.5137L12.8079 74.3842L18.0987 79.6751L25.9655 71.8008L20.6821 66.5137ZM84.6087 66.5137L79.3216 71.8008L87.1921 79.6751L92.483 74.3842L84.6087 66.5137ZM45.1247 81.2018H60.1662V88.7226H45.1247V81.2018Z" fill="url(#paint0_linear_0_321)"/>
<defs>
<linearGradient id="paint0_linear_0_321" x1="0" y1="0" x2="110.627" y2="6.2996" gradientUnits="userSpaceOnUse">
<stop stop-color="#512D9A"/>
<stop offset="1" stop-color="#1748C2"/>
</linearGradient>
</defs>
</svg>
