<svg width="101" height="100" viewBox="0 0 101 100" fill="none" xmlns="http://www.w3.org/2000/svg">
<path d="M38.2842 41.15C38.4508 37.8167 39.6175 35.25 41.7842 33.45C43.9842 31.6167 46.8675 30.7 50.4342 30.7C52.8675 30.7 54.9508 31.1333 56.6842 32C58.4175 32.8333 59.7175 33.9833 60.5842 35.45C61.4842 36.8833 61.9342 38.5167 61.9342 40.35C61.9342 42.45 61.3842 44.2333 60.2842 45.7C59.2175 47.1333 57.9342 48.1 56.4342 48.6V48.8C58.3675 49.4 59.8675 50.4667 60.9342 52C62.0342 53.5333 62.5842 55.5 62.5842 57.9C62.5842 59.9 62.1175 61.6833 61.1842 63.25C60.2842 64.8167 58.9342 66.05 57.1342 66.95C55.3675 67.8167 53.2342 68.25 50.7342 68.25C46.9675 68.25 43.9008 67.3 41.5342 65.4C39.1675 63.5 37.9175 60.7 37.7842 57H44.5842C44.6508 58.6333 45.2008 59.95 46.2342 60.95C47.3008 61.9167 48.7508 62.4 50.5842 62.4C52.2842 62.4 53.5842 61.9333 54.4842 61C55.4175 60.0333 55.8842 58.8 55.8842 57.3C55.8842 55.3 55.2508 53.8667 53.9842 53C52.7175 52.1333 50.7508 51.7 48.0842 51.7H46.6342V45.95H48.0842C52.8175 45.95 55.1842 44.3667 55.1842 41.2C55.1842 39.7667 54.7508 38.65 53.8842 37.85C53.0508 37.05 51.8342 36.65 50.2342 36.65C48.6675 36.65 47.4508 37.0833 46.5842 37.95C45.7508 38.7833 45.2675 39.85 45.1342 41.15H38.2842Z" fill="url(#paint0_linear_0_355)"/>
<rect x="11.5" y="11" width="78" height="78" rx="39" stroke="url(#paint1_linear_0_355)" stroke-width="2"/>
<rect x="2" y="1.5" width="97" height="97" rx="48.5" stroke="url(#paint2_linear_0_355)" stroke-width="3" stroke-dasharray="15 15"/>
<defs>
<linearGradient id="paint0_linear_0_355" x1="15.5" y1="15" x2="89.0706" y2="18.9789" gradientUnits="userSpaceOnUse">
<stop stop-color="#6E2195"/>
<stop offset="0.501735" stop-color="#101F95"/>
<stop offset="1" stop-color="#0A67E0"/>
</linearGradient>
<linearGradient id="paint1_linear_0_355" x1="10.5" y1="10" x2="94.5807" y2="14.5474" gradientUnits="userSpaceOnUse">
<stop stop-color="#6E2195"/>
<stop offset="0.501735" stop-color="#101F95"/>
<stop offset="1" stop-color="#0A67E0"/>
</linearGradient>
<linearGradient id="paint2_linear_0_355" x1="0.5" y1="0" x2="105.601" y2="5.6842" gradientUnits="userSpaceOnUse">
<stop stop-color="#6E2195"/>
<stop offset="0.501735" stop-color="#101F95"/>
<stop offset="1" stop-color="#0A67E0"/>
</linearGradient>
</defs>
</svg>
