<svg width="50" height="50" viewBox="0 0 50 50" fill="none" xmlns="http://www.w3.org/2000/svg">
<path d="M50 25C50 38.8071 38.8071 50 25 50C11.1929 50 0 38.8071 0 25C0 11.1929 11.1929 0 25 0C38.8071 0 50 11.1929 50 25ZM2.5 25C2.5 37.4264 12.5736 47.5 25 47.5C37.4264 47.5 47.5 37.4264 47.5 25C47.5 12.5736 37.4264 2.5 25 2.5C12.5736 2.5 2.5 12.5736 2.5 25Z" fill="white"/>
<path d="M25 35.4166C23.5591 35.4166 22.2049 35.143 20.9375 34.5958C19.6702 34.0486 18.5677 33.3066 17.6302 32.3698C16.6927 31.4323 15.9507 30.3298 15.4042 29.0625C14.8577 27.7951 14.5841 26.441 14.5834 25C14.5834 23.559 14.857 22.2048 15.4042 20.9375C15.9514 19.6701 16.6934 18.5677 17.6302 17.6302C18.5677 16.6927 19.6702 15.9507 20.9375 15.4041C22.2049 14.8576 23.5591 14.584 25 14.5833C26.441 14.5833 27.7952 14.8569 29.0625 15.4041C30.3299 15.9514 31.4323 16.6934 32.3698 17.6302C33.3073 18.5677 34.0497 19.6701 34.5969 20.9375C35.1441 22.2048 35.4174 23.559 35.4167 25C35.4167 26.441 35.1431 27.7951 34.5959 29.0625C34.0487 30.3298 33.3066 31.4323 32.3698 32.3698C31.4323 33.3073 30.3299 34.0496 29.0625 34.5969C27.7952 35.1441 26.441 35.4173 25 35.4166ZM25 33.3333C27.3264 33.3333 29.2969 32.526 30.9115 30.9114C32.5261 29.2969 33.3334 27.3264 33.3334 25C33.3334 22.6736 32.5261 20.7031 30.9115 19.0885C29.2969 17.4739 27.3264 16.6666 25 16.6666C22.6737 16.6666 20.7032 17.4739 19.0886 19.0885C17.474 20.7031 16.6667 22.6736 16.6667 25C16.6667 27.3264 17.474 29.2969 19.0886 30.9114C20.7032 32.526 22.6737 33.3333 25 33.3333ZM21.875 30.2083H28.125V28.125H23.9584V26.0416H26.0417C26.6146 26.0416 27.1053 25.8375 27.5136 25.4291C27.9219 25.0208 28.1257 24.5305 28.125 23.9583V21.875C28.125 21.3021 27.9209 20.8114 27.5125 20.4031C27.1042 19.9948 26.6139 19.791 26.0417 19.7916H21.875V21.875H26.0417V23.9583H23.9584C23.3855 23.9583 22.8948 24.1625 22.4865 24.5708C22.0782 24.9791 21.8743 25.4694 21.875 26.0416V30.2083Z" fill="white"/>
</svg>
