<svg width="100" height="100" viewBox="0 0 100 100" fill="none" xmlns="http://www.w3.org/2000/svg">
<path d="M100 50C100 77.6142 77.6142 100 50 100C22.3858 100 0 77.6142 0 50C0 22.3858 22.3858 0 50 0C77.6142 0 100 22.3858 100 50ZM5 50C5 74.8528 25.1472 95 50 95C74.8528 95 95 74.8528 95 50C95 25.1472 74.8528 5 50 5C25.1472 5 5 25.1472 5 50Z" fill="#001063"/>
<path d="M50.0001 70.8333C47.1181 70.8333 44.4098 70.2861 41.8751 69.1917C39.3404 68.0972 37.1355 66.6132 35.2605 64.7396C33.3855 62.8646 31.9015 60.6597 30.8084 58.125C29.7154 55.5903 29.1681 52.8819 29.1667 50C29.1667 47.118 29.714 44.4097 30.8084 41.875C31.9029 39.3403 33.3869 37.1354 35.2605 35.2604C37.1355 33.3854 39.3404 31.9014 41.8751 30.8083C44.4098 29.7153 47.1181 29.168 50.0001 29.1667C52.882 29.1667 55.5904 29.7139 58.1251 30.8083C60.6598 31.9028 62.8647 33.3868 64.7397 35.2604C66.6147 37.1354 68.0994 39.3403 69.1938 41.875C70.2883 44.4097 70.8348 47.118 70.8334 50C70.8334 52.8819 70.2862 55.5903 69.1917 58.125C68.0973 60.6597 66.6133 62.8646 64.7397 64.7396C62.8647 66.6146 60.6598 68.0993 58.1251 69.1937C55.5904 70.2882 52.882 70.8347 50.0001 70.8333ZM50.0001 66.6667C54.6529 66.6667 58.5938 65.0521 61.823 61.8229C65.0522 58.5937 66.6668 54.6528 66.6668 50C66.6668 45.3472 65.0522 41.4062 61.823 38.1771C58.5938 34.9479 54.6529 33.3333 50.0001 33.3333C45.3473 33.3333 41.4063 34.9479 38.1772 38.1771C34.948 41.4062 33.3334 45.3472 33.3334 50C33.3334 54.6528 34.948 58.5937 38.1772 61.8229C41.4063 65.0521 45.3473 66.6667 50.0001 66.6667ZM43.7501 60.4167H52.0834C53.2292 60.4167 54.2105 60.0083 55.0272 59.1917C55.8438 58.375 56.2515 57.3944 56.2501 56.25V53.125C56.2501 52.2222 55.9549 51.4757 55.3647 50.8854C54.7744 50.2951 54.0279 50 53.1251 50C54.0279 50 54.7744 49.7049 55.3647 49.1146C55.9549 48.5243 56.2501 47.7778 56.2501 46.875V43.75C56.2501 42.6042 55.8417 41.6229 55.0251 40.8062C54.2084 39.9896 53.2279 39.5819 52.0834 39.5833H43.7501V43.75H52.0834V47.9167H47.9167V52.0833H52.0834V56.25H43.7501V60.4167Z" fill="#001063"/>
</svg>
