<svg width="50" height="50" viewBox="0 0 50 50" fill="none" xmlns="http://www.w3.org/2000/svg">
<path d="M50 25C50 38.8071 38.8071 50 25 50C11.1929 50 0 38.8071 0 25C0 11.1929 11.1929 0 25 0C38.8071 0 50 11.1929 50 25ZM2.5 25C2.5 37.4264 12.5736 47.5 25 47.5C37.4264 47.5 47.5 37.4264 47.5 25C47.5 12.5736 37.4264 2.5 25 2.5C12.5736 2.5 2.5 12.5736 2.5 25Z" fill="white"/>
<path d="M25 35.4167C23.5591 35.4167 22.2049 35.1431 20.9375 34.5959C19.6702 34.0487 18.5677 33.3066 17.6302 32.3698C16.6927 31.4323 15.9507 30.3299 15.4042 29.0625C14.8577 27.7952 14.5841 26.441 14.5834 25C14.5834 23.5591 14.857 22.2049 15.4042 20.9375C15.9514 19.6702 16.6934 18.5677 17.6302 17.6302C18.5677 16.6927 19.6702 15.9507 20.9375 15.4042C22.2049 14.8577 23.5591 14.5841 25 14.5834C26.441 14.5834 27.7952 14.857 29.0625 15.4042C30.3299 15.9514 31.4323 16.6934 32.3698 17.6302C33.3073 18.5677 34.0497 19.6702 34.5969 20.9375C35.1441 22.2049 35.4174 23.5591 35.4167 25C35.4167 26.441 35.1431 27.7952 34.5959 29.0625C34.0487 30.3299 33.3066 31.4323 32.3698 32.3698C31.4323 33.3073 30.3299 34.0497 29.0625 34.5969C27.7952 35.1441 26.441 35.4174 25 35.4167ZM25 33.3334C27.3264 33.3334 29.2969 32.5261 30.9115 30.9115C32.5261 29.2969 33.3334 27.3264 33.3334 25C33.3334 22.6737 32.5261 20.7032 30.9115 19.0886C29.2969 17.474 27.3264 16.6667 25 16.6667C22.6737 16.6667 20.7032 17.474 19.0886 19.0886C17.474 20.7032 16.6667 22.6737 16.6667 25C16.6667 27.3264 17.474 29.2969 19.0886 30.9115C20.7032 32.5261 22.6737 33.3334 25 33.3334ZM21.875 30.2084H26.0417C26.6146 30.2084 27.1053 30.0042 27.5136 29.5959C27.9219 29.1875 28.1257 28.6973 28.125 28.125V26.5625C28.125 26.1112 27.9775 25.7379 27.6823 25.4427C27.3872 25.1476 27.0139 25 26.5625 25C27.0139 25 27.3872 24.8525 27.6823 24.5573C27.9775 24.2622 28.125 23.8889 28.125 23.4375V21.875C28.125 21.3021 27.9209 20.8115 27.5125 20.4032C27.1042 19.9948 26.6139 19.791 26.0417 19.7917H21.875V21.875H26.0417V23.9584H23.9584V26.0417H26.0417V28.125H21.875V30.2084Z" fill="white"/>
</svg>
