<svg width="100" height="100" viewBox="0 0 100 100" fill="none" xmlns="http://www.w3.org/2000/svg">
<path d="M100 50C100 77.6142 77.6142 100 50 100C22.3858 100 0 77.6142 0 50C0 22.3858 22.3858 0 50 0C77.6142 0 100 22.3858 100 50ZM5 50C5 74.8528 25.1472 95 50 95C74.8528 95 95 74.8528 95 50C95 25.1472 74.8528 5 50 5C25.1472 5 5 25.1472 5 50Z" fill="#FF4D00" fill-opacity="0.95"/>
<path d="M50 70.8333C47.118 70.8333 44.4097 70.2861 41.875 69.1917C39.3402 68.0972 37.1354 66.6132 35.2604 64.7396C33.3854 62.8646 31.9013 60.6597 30.8083 58.125C29.7152 55.5903 29.168 52.8819 29.1666 50C29.1666 47.118 29.7138 44.4097 30.8083 41.875C31.9027 39.3403 33.3868 37.1354 35.2604 35.2604C37.1354 33.3854 39.3402 31.9014 41.875 30.8083C44.4097 29.7153 47.118 29.168 50 29.1667C52.8819 29.1667 55.5902 29.7139 58.125 30.8083C60.6597 31.9028 62.8645 33.3868 64.7395 35.2604C66.6145 37.1354 68.0993 39.3403 69.1937 41.875C70.2882 44.4097 70.8347 47.118 70.8333 50C70.8333 52.8819 70.2861 55.5903 69.1916 58.125C68.0972 60.6597 66.6132 62.8646 64.7395 64.7396C62.8645 66.6146 60.6597 68.0993 58.125 69.1937C55.5902 70.2882 52.8819 70.8347 50 70.8333ZM50 66.6667C54.6527 66.6667 58.5937 65.0521 61.8229 61.8229C65.052 58.5937 66.6666 54.6528 66.6666 50C66.6666 45.3472 65.052 41.4062 61.8229 38.1771C58.5937 34.9479 54.6527 33.3333 50 33.3333C45.3472 33.3333 41.4062 34.9479 38.177 38.1771C34.9479 41.4062 33.3333 45.3472 33.3333 50C33.3333 54.6528 34.9479 58.5937 38.177 61.8229C41.4062 65.0521 45.3472 66.6667 50 66.6667ZM48.9583 60.4167H53.125V39.5833H44.7916V43.75H48.9583V60.4167Z" fill="#FF4D00" fill-opacity="0.95"/>
</svg>
